<svg width="24" height="24" xmlns="http://www.w3.org/2000/svg" fill-rule="evenodd" clip-rule="evenodd"><path d="M7.722 19.994l2.185-3 .808.589-2.185 3-.808-.589zm6.415-3l2.185 3-.809.589-2.185-3 .809-.589zm-2.135-13.5c-.884 0-1.521-.151-1.833-.285.312-.133.949-.284 1.833-.284s1.521.151 1.833.284c-.312.134-.949.285-1.833.285m6.008 10.255l-.971.167-.016 9.084h-4.512v-18.522c1.242-.075 2.491-.435 2.491-1.269 0-.948-1.616-1.284-3-1.284s-3 .336-3 1.284c0 .838 1.261 1.197 2.509 1.27v18.521h-4.511l.017-9.082-.97-.171-2.867 7.937-1.968-.47 3.557-14.595 4.277-1.703c-1.041-.922-1.229-1.666-1.175-2.14.185-1.62 3.155-1.776 4.129-1.776.974 0 4.02.258 4.146 1.81.039.472-.047 1.184-1.236 2.078l4.343 1.731 3.54 14.597-1.952.474-2.831-7.941zm2.093-7.868l-3.432-1.368c.344-.533.522-1.179.472-1.785-.226-2.718-4.959-2.728-5.134-2.728-3.863.015-5.021 1.695-5.132 2.662-.067.593.115 1.249.497 1.843l-3.454 1.376-3.917 16.071 3.814.912 2.195-6.075-.014 7.211h12.023l.014-7.206 2.167 6.082 3.798-.926-3.897-16.069z"/></svg>